<?xml version="1.0" standalone="no"?>
<!DOCTYPE svg PUBLIC "-//W3C//DTD SVG 20010904//EN"
 "http://www.w3.org/TR/2001/REC-SVG-20010904/DTD/svg10.dtd">
<svg version="1.0" xmlns="http://www.w3.org/2000/svg"
 width="500.000000pt" height="500.000000pt" viewBox="0 0 500.000000 500.000000"
 preserveAspectRatio="xMidYMid meet">

<g transform="translate(0.000000,500.000000) scale(0.100000,-0.100000)"
fill="#000000" stroke="none">
<path d="M2550 3747 c0 -2 47 -149 105 -327 58 -178 105 -330 105 -337 0 -9
-31 2 -87 31 -109 54 -176 78 -588 211 -181 59 -349 114 -373 122 -23 9 -44
14 -47 12 -2 -3 109 -76 247 -164 137 -88 307 -196 376 -240 69 -44 127 -86
129 -92 2 -6 -26 -21 -64 -34 -210 -69 -337 -250 -329 -468 3 -79 52 -242 92
-307 57 -92 160 -173 258 -203 107 -33 200 -29 338 15 372 116 668 217 668
227 0 13 -436 1357 -442 1361 -9 7 -377 196 -382 196 -3 0 -6 -1 -6 -3z m170
-152 c39 -19 70 -40 70 -45 0 -10 -57 -129 -67 -140 -8 -8 -22 24 -53 118 -16
51 -30 95 -30 98 0 8 11 4 80 -31z m200 -1020 c34 -108 61 -197 59 -199 -12
-11 -391 -128 -429 -132 -95 -11 -189 79 -205 196 -10 71 2 107 50 155 39 39
58 48 241 108 109 36 204 66 210 66 5 1 39 -87 74 -194z"/>
<path d="M2640 2621 c-16 -31 4 -63 37 -59 34 4 52 32 37 56 -16 26 -60 28
-74 3z"/>
<path d="M1720 3666 c0 -8 5 -18 10 -21 6 -3 10 1 10 9 0 8 -4 18 -10 21 -5 3
-10 -1 -10 -9z"/>
<path d="M1170 1774 c-6 -14 -10 -35 -10 -47 0 -20 -4 -22 -43 -19 -35 3 -50
-1 -72 -21 -24 -20 -29 -33 -33 -83 -6 -85 14 -129 66 -144 32 -10 44 -10 70
4 18 9 32 12 32 6 0 -5 16 -10 35 -10 l35 0 0 151 c0 84 -5 159 -10 170 -16
29 -58 25 -70 -7z m-12 -185 c5 -74 -50 -95 -64 -24 -8 43 10 77 39 73 18 -2
22 -10 25 -49z"/>
<path d="M2440 1781 c-33 -9 -38 -33 -39 -188 l-1 -133 45 0 45 0 0 55 c0 52
1 55 24 55 20 0 31 -11 53 -52 27 -52 29 -53 77 -56 l48 -3 -19 33 c-60 100
-58 93 -35 123 30 37 29 96 0 130 -33 38 -128 55 -198 36z m114 -71 c49 -18
26 -70 -31 -70 -31 0 -33 2 -33 33 0 49 13 57 64 37z"/>
<path d="M3888 1779 c-11 -6 -18 -22 -18 -40 0 -23 -6 -32 -26 -39 -30 -12
-29 -40 3 -54 18 -9 22 -20 25 -83 2 -50 8 -78 20 -89 21 -21 95 -24 108 -4
15 23 7 44 -20 50 -23 5 -25 11 -28 62 -3 55 -2 57 25 60 22 2 28 8 28 28 0
18 -7 26 -25 30 -19 4 -26 13 -28 35 -2 17 -11 36 -20 43 -19 14 -22 14 -44 1z"/>
<path d="M1519 1681 c-26 -27 -29 -36 -29 -96 0 -59 3 -70 28 -94 34 -35 87
-45 138 -29 32 11 40 18 42 42 l4 29 -52 -7 c-34 -5 -57 -3 -66 5 -27 22 -14
29 56 29 l70 0 0 46 c0 37 -5 51 -29 75 -25 25 -37 29 -81 29 -44 0 -56 -4
-81 -29z m95 -37 c28 -11 18 -34 -14 -34 -32 0 -37 9 -18 28 14 14 12 14 32 6z"/>
<path d="M1947 1703 c-14 -14 -6 -51 30 -146 l38 -98 44 3 44 3 40 107 c34 91
38 110 27 123 -7 9 -25 15 -38 13 -21 -3 -29 -13 -46 -65 -12 -34 -24 -64 -27
-67 -3 -3 -13 20 -23 52 -10 31 -23 63 -28 70 -11 13 -50 17 -61 5z"/>
<path d="M2947 1689 c-51 -39 -58 -148 -14 -197 27 -29 82 -43 128 -33 51 12
59 18 59 48 0 25 -1 25 -51 19 -33 -5 -56 -3 -65 5 -27 22 -14 29 56 29 l70 0
0 35 c0 43 -23 90 -49 105 -34 18 -106 12 -134 -11z m87 -45 c28 -11 18 -34
-14 -34 -30 0 -43 23 -17 33 6 3 13 6 14 6 1 1 8 -2 17 -5z"/>
<path d="M3381 1697 c-7 -7 -11 -58 -11 -124 l0 -113 40 0 40 0 0 74 c0 86 6
106 29 106 32 0 41 -22 41 -102 l0 -78 40 0 40 0 0 85 c0 93 -17 150 -47 158
-31 10 -161 5 -172 -6z"/>
</g>
</svg>
